<svg width="11" height="7" viewBox="0 0 11 7" fill="none"
  xmlns="http://www.w3.org/2000/svg">
  <path d="M11 0H0.25V6.14286H11V0Z" fill="#DA0000"/>
  <path d="M11 0H0.25V4.09524H11V0Z" fill="white"/>
  <path d="M11 0H0.25V2.04762H11V0Z" fill="#239F40"/>
  <path d="M5.2041 3.71366C5.35799 3.76366 5.52444 3.75883 5.67516 3.7C5.82589 3.64116 5.9516 3.53195 6.03091 3.39092C6.11023 3.2499 6.13827 3.08575 6.11026 2.92639C6.08225 2.76703 5.99993 2.62229 5.87728 2.51675C5.95708 2.63485 6.00245 2.77283 6.00829 2.91524C6.01413 3.05765 5.98021 3.19888 5.91034 3.32311C5.84047 3.44734 5.7374 3.54967 5.61267 3.61865C5.48794 3.68763 5.34647 3.72053 5.2041 3.71366" fill="#DA0000"/>
  <path d="M6.09979 3.57933C6.20093 3.52088 6.28231 3.43356 6.33351 3.32856C6.38471 3.22356 6.4034 3.10567 6.38717 2.98999C6.37095 2.87431 6.32055 2.7661 6.24245 2.67924C6.16434 2.59238 6.06208 2.53082 5.94876 2.50244C6.0295 2.56315 6.09748 2.63918 6.14878 2.7262C6.20009 2.81322 6.23372 2.90951 6.24775 3.00954C6.26178 3.10958 6.25593 3.2114 6.23054 3.30918C6.20515 3.40695 6.16072 3.49876 6.09979 3.57933" fill="#DA0000"/>
  <path d="M5.625 3.83929L5.58661 3.07144L5.625 2.46692C5.64833 2.49951 5.6795 2.52568 5.71563 2.543V2.99434L5.68475 3.75706L5.625 3.83929Z" fill="#DA0000"/>
  <path d="M5.60962 2.41877L5.62498 2.43319C5.6406 2.4554 5.66383 2.4711 5.69027 2.47731C5.7167 2.48352 5.74449 2.47981 5.76837 2.46688C5.79225 2.45395 5.81055 2.4327 5.8198 2.40717C5.82904 2.38164 5.82859 2.35361 5.81853 2.32838C5.81457 2.34939 5.80427 2.36868 5.78903 2.38366C5.77378 2.39864 5.75432 2.4086 5.73325 2.4122C5.71218 2.4158 5.69052 2.41287 5.67116 2.4038C5.65181 2.39473 5.63569 2.37995 5.62498 2.36146" fill="#DA0000"/>
  <path d="M6.0459 3.71366C5.89201 3.76366 5.72556 3.75883 5.57484 3.7C5.42411 3.64116 5.2984 3.53195 5.21909 3.39092C5.13977 3.2499 5.11173 3.08575 5.13974 2.92639C5.16775 2.76703 5.25007 2.62229 5.37272 2.51675C5.29292 2.63485 5.24755 2.77283 5.24171 2.91524C5.23587 3.05765 5.26979 3.19888 5.33966 3.32311C5.40953 3.44734 5.5126 3.54967 5.63733 3.61865C5.76206 3.68763 5.90353 3.72053 6.0459 3.71366" fill="#DA0000"/>
  <path d="M5.15021 3.57933C5.04907 3.52088 4.96769 3.43356 4.91649 3.32856C4.86529 3.22356 4.8466 3.10567 4.86283 2.98999C4.87905 2.87431 4.92945 2.7661 5.00755 2.67924C5.08566 2.59238 5.18792 2.53082 5.30124 2.50244C5.2205 2.56315 5.15252 2.63918 5.10122 2.7262C5.04991 2.81322 5.01628 2.90951 5.00225 3.00954C4.98822 3.10958 4.99407 3.2114 5.01946 3.30918C5.04485 3.40695 5.08928 3.49876 5.15021 3.57933" fill="#DA0000"/>
  <path d="M5.625 3.83929L5.66339 3.07144L5.625 2.46692C5.60167 2.49951 5.5705 2.52568 5.53437 2.543V2.99434L5.56525 3.75706L5.625 3.83929Z" fill="#DA0000"/>
  <path d="M5.64035 2.41877L5.62499 2.43319C5.60937 2.4554 5.58614 2.4711 5.5597 2.47731C5.53327 2.48352 5.50548 2.47981 5.4816 2.46688C5.45772 2.45395 5.43942 2.4327 5.43017 2.40717C5.42093 2.38164 5.42138 2.35361 5.43144 2.32838C5.4354 2.34939 5.4457 2.36868 5.46094 2.38366C5.47618 2.39864 5.49565 2.4086 5.51672 2.4122C5.53779 2.4158 5.55945 2.41287 5.57881 2.4038C5.59816 2.39473 5.61428 2.37995 5.62499 2.36146" fill="#DA0000"/>
</svg>
